<?xml version="1.0" encoding="UTF-8"?>
<svg version="1.1" xmlns="http://www.w3.org/2000/svg" width="192" height="50">
<path d="M0 0 C63.36 0 126.72 0 192 0 C192 16.5 192 33 192 50 C128.64 50 65.28 50 0 50 C0 33.5 0 17 0 0 Z " fill="#FDFDFE" transform="translate(0,0)"/>
<path d="M0 0 C1.98 0 3.96 0 6 0 C9.07836721 6.94395046 11.62820313 13.51747162 13 21 C11.35 21 9.7 21 8 21 C7.67 20.01 7.34 19.02 7 18 C4.36 18 1.72 18 -1 18 C-1.33 18.99 -1.66 19.98 -2 21 C-3.65 21 -5.3 21 -7 21 C-6.38169051 15.97525707 -4.87023224 11.75279506 -2.9375 7.125 C-2.65583984 6.43664062 -2.37417969 5.74828125 -2.08398438 5.0390625 C-1.39484734 3.35710091 -0.69819202 1.67822303 0 0 Z " fill="#6B69FF" transform="translate(87,17)"/>
<path d="M0 0 C1.32 0 2.64 0 4 0 C4 2.64 4 5.28 4 8 C6.97 8 9.94 8 13 8 C13 5.36 13 2.72 13 0 C14.65 0 16.3 0 18 0 C18 6.93 18 13.86 18 21 C16.35 21 14.7 21 13 21 C13 18.03 13 15.06 13 12 C10.03 12 7.06 12 4 12 C4 14.97 4 17.94 4 21 C2.68 21 1.36 21 0 21 C0 14.07 0 7.14 0 0 Z " fill="#513FF6" transform="translate(17,17)"/>
<path d="M0 0 C1.22589844 0.01353516 1.22589844 0.01353516 2.4765625 0.02734375 C3.41628906 0.04474609 3.41628906 0.04474609 4.375 0.0625 C4.705 1.7125 5.035 3.3625 5.375 5.0625 C3.4878125 4.9696875 3.4878125 4.9696875 1.5625 4.875 C-1.01969981 4.89331347 -2.36951965 4.93088891 -4.6875 6.125 C-6.207054 9.2654116 -5.41788609 11.76897317 -4.625 15.0625 C-2.33794169 16.20602916 -1.03235238 16.16584439 1.5 16.125 C2.77875 16.104375 4.0575 16.08375 5.375 16.0625 C5.045 17.7125 4.715 19.3625 4.375 21.0625 C-5.41085462 21.63813851 -5.41085462 21.63813851 -9.625 18.0625 C-12.19689679 14.63330428 -12.127142 11.22310514 -11.625 7.0625 C-8.60726749 2.03668527 -5.80472048 -0.08292458 0 0 Z " fill="#5B47F6" transform="translate(49.625,16.9375)"/>
<path d="M0 0 C2.33333333 0 4.66666667 0 7 0 C7.804375 -0.061875 8.60875 -0.12375 9.4375 -0.1875 C12 0 12 0 13.6484375 1.125 C15.59762715 3.82907812 15.29359179 5.89865453 15.1875 9.1875 C15.16042969 10.27417969 15.13335937 11.36085938 15.10546875 12.48046875 C15.07066406 13.31191406 15.03585938 14.14335938 15 15 C13.35 15 11.7 15 10 15 C10 11.37 10 7.74 10 4 C8.35 4 6.7 4 5 4 C5 7.63 5 11.26 5 15 C3.35 15 1.7 15 0 15 C0 10.05 0 5.1 0 0 Z " fill="#6B6DFF" transform="translate(140,23)"/>
<path d="M0 0 C1.875 1.125 1.875 1.125 3 3 C3.1875 6.1875 3.1875 6.1875 3 9 C0.03 9 -2.94 9 -6 9 C-6 9.66 -6 10.32 -6 11 C-3.36 11 -0.72 11 2 11 C1.67 12.32 1.34 13.64 1 15 C-6.24942792 15.60411899 -6.24942792 15.60411899 -9.5625 12.9375 C-11.44610971 9.08838451 -11.207644 7.07579849 -10 3 C-7.07957636 -0.35307899 -4.3033169 -0.5493596 0 0 Z " fill="#7471FF" transform="translate(168,23)"/>
<path d="M0 0 C1.32 0 2.64 0 4 0 C4 5.61 4 11.22 4 17 C6.64 17 9.28 17 12 17 C12 18.32 12 19.64 12 21 C8.04 21 4.08 21 0 21 C0 14.07 0 7.14 0 0 Z " fill="#503BF6" transform="translate(59,17)"/>
<path d="M0 0 C1.65 0 3.3 0 5 0 C5 7.59 5 15.18 5 23 C3.35 23 1.7 23 0 23 C0 15.41 0 7.82 0 0 Z " fill="#6E6FFF" transform="translate(123,15)"/>
<path d="M0 0 C2.01822917 0.06510417 4.03645833 0.13020833 6.0546875 0.1953125 C5.7246875 1.5153125 5.3946875 2.8353125 5.0546875 4.1953125 C3.7346875 4.5253125 2.4146875 4.8553125 1.0546875 5.1953125 C3.0346875 6.1853125 5.0146875 7.1753125 7.0546875 8.1953125 C6.3046875 12.9453125 6.3046875 12.9453125 4.0546875 15.1953125 C1.36629365 15.46523156 -1.23673186 15.28268607 -3.9453125 15.1953125 C-3.9453125 13.8753125 -3.9453125 12.5553125 -3.9453125 11.1953125 C-0.9753125 11.6903125 -0.9753125 11.6903125 2.0546875 12.1953125 C1.17179363 9.93602051 1.17179363 9.93602051 -1.5078125 8.8828125 C-2.3121875 8.3259375 -3.1165625 7.7690625 -3.9453125 7.1953125 C-4.3828125 4.6328125 -4.3828125 4.6328125 -3.9453125 2.1953125 C-1.9453125 0.1953125 -1.9453125 0.1953125 0 0 Z " fill="#6969FF" transform="translate(177.9453125,22.8046875)"/>
<path d="M0 0 C3.33333333 0 6.66666667 0 10 0 C10 1.32 10 2.64 10 4 C8.68 4.33 7.36 4.66 6 5 C5.67 8.3 5.34 11.6 5 15 C3.35 15 1.7 15 0 15 C0 10.05 0 5.1 0 0 Z " fill="#6B6AFF" transform="translate(111,23)"/>
<path d="M0 0 C1.32 0 2.64 0 4 0 C4 4.95 4 9.9 4 15 C2.68 15 1.36 15 0 15 C0 10.05 0 5.1 0 0 Z " fill="#615FFF" transform="translate(132,23)"/>
<path d="M0 0 C1.32 0 2.64 0 4 0 C4 4.95 4 9.9 4 15 C2.68 15 1.36 15 0 15 C0 10.05 0 5.1 0 0 Z " fill="#615FFF" transform="translate(103,23)"/>
<path d="M0 0 C0.66 0.33 1.32 0.66 2 1 C2.73075648 3.3140622 3.40138258 5.64828869 4 8 C2.02 8 0.04 8 -2 8 C-1.34 5.36 -0.68 2.72 0 0 Z " fill="#E2E9FF" transform="translate(89,22)"/>
<path d="M0 0 C1.65 0.33 3.3 0.66 5 1 C4.67 2.32 4.34 3.64 4 5 C2.35 4.67 0.7 4.34 -1 4 C-0.67 2.68 -0.34 1.36 0 0 Z " fill="#7B7CFF" transform="translate(132,15)"/>
<path d="M0 0 C1.65 0.33 3.3 0.66 5 1 C4.67 2.32 4.34 3.64 4 5 C2.35 4.67 0.7 4.34 -1 4 C-0.67 2.68 -0.34 1.36 0 0 Z " fill="#7B7CFF" transform="translate(103,15)"/>
</svg>
